<mxfile host="app.diagrams.net" modified="2021-06-04T04:11:02.974Z" agent="5.0 (Windows NT 10.0; Win64; x64) AppleWebKit/537.36 (KHTML, like Gecko) Chrome/91.0.4472.77 Safari/537.36" etag="Ucn5zSoKU9QJAOzYe2hb" version="14.7.5" type="github">
  <diagram id="wr2aqqQ_BuirUl_clU-L" name="Page-1">
    <mxGraphModel dx="1422" dy="762" grid="1" gridSize="10" guides="1" tooltips="1" connect="1" arrows="1" fold="1" page="1" pageScale="1" pageWidth="827" pageHeight="1169" math="0" shadow="0">
      <root>
        <mxCell id="0" />
        <mxCell id="1" parent="0" />
        <mxCell id="Zg-CFBz7XTrR8N7PaE-r-5" value="" style="rounded=1;whiteSpace=wrap;html=1;dashed=1;fillColor=#fff2cc;strokeColor=#d6b656;" vertex="1" parent="1">
          <mxGeometry x="40" y="320" width="200" height="320" as="geometry" />
        </mxCell>
        <mxCell id="Zg-CFBz7XTrR8N7PaE-r-6" value="&lt;font style=&quot;font-size: 14px&quot;&gt;Broker1&lt;/font&gt;" style="text;html=1;strokeColor=none;fillColor=none;align=center;verticalAlign=middle;whiteSpace=wrap;rounded=0;dashed=1;" vertex="1" parent="1">
          <mxGeometry x="110" y="590" width="60" height="30" as="geometry" />
        </mxCell>
        <mxCell id="Zg-CFBz7XTrR8N7PaE-r-7" value="" style="rounded=1;whiteSpace=wrap;html=1;dashed=1;fillColor=#fff2cc;strokeColor=#d6b656;" vertex="1" parent="1">
          <mxGeometry x="600" y="320" width="200" height="320" as="geometry" />
        </mxCell>
        <mxCell id="Zg-CFBz7XTrR8N7PaE-r-8" value="" style="rounded=1;whiteSpace=wrap;html=1;dashed=1;fillColor=#fff2cc;strokeColor=#d6b656;" vertex="1" parent="1">
          <mxGeometry x="320" y="320" width="200" height="320" as="geometry" />
        </mxCell>
        <mxCell id="Zg-CFBz7XTrR8N7PaE-r-9" value="" style="rounded=1;whiteSpace=wrap;html=1;dashed=1;fillColor=#fff2cc;strokeColor=#d6b656;" vertex="1" parent="1">
          <mxGeometry x="880" y="320" width="200" height="320" as="geometry" />
        </mxCell>
        <mxCell id="Zg-CFBz7XTrR8N7PaE-r-10" value="&lt;font style=&quot;font-size: 14px&quot;&gt;Broker4&lt;/font&gt;" style="text;html=1;strokeColor=none;fillColor=none;align=center;verticalAlign=middle;whiteSpace=wrap;rounded=0;dashed=1;" vertex="1" parent="1">
          <mxGeometry x="950" y="590" width="60" height="30" as="geometry" />
        </mxCell>
        <mxCell id="Zg-CFBz7XTrR8N7PaE-r-11" value="&lt;font style=&quot;font-size: 14px&quot;&gt;Broker3&lt;/font&gt;" style="text;html=1;strokeColor=none;fillColor=none;align=center;verticalAlign=middle;whiteSpace=wrap;rounded=0;dashed=1;" vertex="1" parent="1">
          <mxGeometry x="670" y="590" width="60" height="30" as="geometry" />
        </mxCell>
        <mxCell id="Zg-CFBz7XTrR8N7PaE-r-12" value="&lt;font style=&quot;font-size: 14px&quot;&gt;Broker2&lt;/font&gt;" style="text;html=1;strokeColor=none;fillColor=none;align=center;verticalAlign=middle;whiteSpace=wrap;rounded=0;dashed=1;" vertex="1" parent="1">
          <mxGeometry x="384" y="590" width="60" height="30" as="geometry" />
        </mxCell>
        <mxCell id="Zg-CFBz7XTrR8N7PaE-r-13" value="&lt;font style=&quot;font-size: 18px&quot;&gt;Producer/Consumer&lt;/font&gt;" style="ellipse;whiteSpace=wrap;html=1;dashed=1;fillColor=#d5e8d4;strokeColor=#82b366;" vertex="1" parent="1">
          <mxGeometry x="40" y="200" width="280" height="80" as="geometry" />
        </mxCell>
        <mxCell id="Zg-CFBz7XTrR8N7PaE-r-14" value="" style="endArrow=classic;startArrow=classic;html=1;entryX=0;entryY=0.5;entryDx=0;entryDy=0;exitX=0;exitY=0.5;exitDx=0;exitDy=0;curved=1;" edge="1" parent="1" source="Zg-CFBz7XTrR8N7PaE-r-15" target="Zg-CFBz7XTrR8N7PaE-r-13">
          <mxGeometry width="50" height="50" relative="1" as="geometry">
            <mxPoint x="20" y="300" as="sourcePoint" />
            <mxPoint x="30" y="220" as="targetPoint" />
            <Array as="points">
              <mxPoint x="10" y="310" />
            </Array>
          </mxGeometry>
        </mxCell>
        <mxCell id="Zg-CFBz7XTrR8N7PaE-r-15" value="&lt;font style=&quot;font-size: 16px&quot;&gt;P1_leader&lt;/font&gt;" style="rounded=0;whiteSpace=wrap;html=1;fillColor=#bac8d3;strokeColor=#23445d;shadow=1;" vertex="1" parent="1">
          <mxGeometry x="80" y="370" width="120" height="40" as="geometry" />
        </mxCell>
        <mxCell id="Zg-CFBz7XTrR8N7PaE-r-16" value="&lt;font style=&quot;font-size: 16px&quot;&gt;P2_leader&lt;/font&gt;" style="rounded=0;whiteSpace=wrap;html=1;fillColor=#bac8d3;strokeColor=#23445d;shadow=1;" vertex="1" parent="1">
          <mxGeometry x="360" y="455" width="120" height="40" as="geometry" />
        </mxCell>
        <mxCell id="Zg-CFBz7XTrR8N7PaE-r-17" value="&lt;font style=&quot;font-size: 16px&quot;&gt;P3_leader&lt;/font&gt;" style="rounded=0;whiteSpace=wrap;html=1;fillColor=#bac8d3;strokeColor=#23445d;shadow=1;" vertex="1" parent="1">
          <mxGeometry x="910" y="455" width="120" height="40" as="geometry" />
        </mxCell>
        <mxCell id="Zg-CFBz7XTrR8N7PaE-r-18" value="&lt;font style=&quot;font-size: 16px&quot;&gt;P3_flower&lt;br&gt;&lt;/font&gt;" style="rounded=0;whiteSpace=wrap;html=1;fillColor=#f5f5f5;strokeColor=#666666;shadow=1;fontColor=#333333;" vertex="1" parent="1">
          <mxGeometry x="80" y="460" width="120" height="40" as="geometry" />
        </mxCell>
        <mxCell id="Zg-CFBz7XTrR8N7PaE-r-19" value="&lt;font style=&quot;font-size: 16px&quot;&gt;P1_flower&lt;br&gt;&lt;/font&gt;" style="rounded=0;whiteSpace=wrap;html=1;fillColor=#f5f5f5;strokeColor=#666666;shadow=1;fontColor=#333333;" vertex="1" parent="1">
          <mxGeometry x="360" y="370" width="120" height="40" as="geometry" />
        </mxCell>
        <mxCell id="Zg-CFBz7XTrR8N7PaE-r-20" value="&lt;font style=&quot;font-size: 16px&quot;&gt;P1_flower&lt;br&gt;&lt;/font&gt;" style="rounded=0;whiteSpace=wrap;html=1;fillColor=#f5f5f5;strokeColor=#666666;shadow=1;fontColor=#333333;" vertex="1" parent="1">
          <mxGeometry x="640" y="370" width="120" height="40" as="geometry" />
        </mxCell>
        <mxCell id="Zg-CFBz7XTrR8N7PaE-r-21" value="&lt;font style=&quot;font-size: 16px&quot;&gt;P2_flower&lt;br&gt;&lt;/font&gt;" style="rounded=0;whiteSpace=wrap;html=1;fillColor=#f5f5f5;strokeColor=#666666;shadow=1;fontColor=#333333;" vertex="1" parent="1">
          <mxGeometry x="910" y="370" width="120" height="40" as="geometry" />
        </mxCell>
        <mxCell id="Zg-CFBz7XTrR8N7PaE-r-22" value="&lt;font style=&quot;font-size: 16px&quot;&gt;P2_flower&lt;br&gt;&lt;/font&gt;" style="rounded=0;whiteSpace=wrap;html=1;fillColor=#f5f5f5;strokeColor=#666666;shadow=1;fontColor=#333333;" vertex="1" parent="1">
          <mxGeometry x="640" y="455" width="120" height="40" as="geometry" />
        </mxCell>
        <mxCell id="Zg-CFBz7XTrR8N7PaE-r-23" value="&lt;font style=&quot;font-size: 16px&quot;&gt;P3_flower&lt;br&gt;&lt;/font&gt;" style="rounded=0;whiteSpace=wrap;html=1;fillColor=#f5f5f5;strokeColor=#666666;shadow=1;fontColor=#333333;" vertex="1" parent="1">
          <mxGeometry x="360" y="530" width="120" height="40" as="geometry" />
        </mxCell>
        <mxCell id="Zg-CFBz7XTrR8N7PaE-r-24" value="&lt;font style=&quot;font-size: 18px&quot;&gt;Producer/Consumer&lt;/font&gt;" style="ellipse;whiteSpace=wrap;html=1;dashed=1;fillColor=#d5e8d4;strokeColor=#82b366;" vertex="1" parent="1">
          <mxGeometry x="880" y="680" width="280" height="80" as="geometry" />
        </mxCell>
        <mxCell id="Zg-CFBz7XTrR8N7PaE-r-25" value="&lt;font style=&quot;font-size: 18px&quot;&gt;Producer/Consumer&lt;/font&gt;" style="ellipse;whiteSpace=wrap;html=1;dashed=1;fillColor=#d5e8d4;strokeColor=#82b366;" vertex="1" parent="1">
          <mxGeometry x="320" y="680" width="280" height="80" as="geometry" />
        </mxCell>
        <mxCell id="Zg-CFBz7XTrR8N7PaE-r-27" value="" style="endArrow=classic;startArrow=classic;html=1;exitX=0;exitY=0.5;exitDx=0;exitDy=0;entryX=0;entryY=0.5;entryDx=0;entryDy=0;curved=1;" edge="1" parent="1" source="Zg-CFBz7XTrR8N7PaE-r-25" target="Zg-CFBz7XTrR8N7PaE-r-16">
          <mxGeometry width="50" height="50" relative="1" as="geometry">
            <mxPoint x="250" y="710" as="sourcePoint" />
            <mxPoint x="300" y="660" as="targetPoint" />
            <Array as="points">
              <mxPoint x="280" y="590" />
            </Array>
          </mxGeometry>
        </mxCell>
        <mxCell id="Zg-CFBz7XTrR8N7PaE-r-28" value="" style="endArrow=classic;startArrow=classic;html=1;exitX=1;exitY=0.5;exitDx=0;exitDy=0;entryX=1;entryY=0.5;entryDx=0;entryDy=0;curved=1;" edge="1" parent="1" source="Zg-CFBz7XTrR8N7PaE-r-24" target="Zg-CFBz7XTrR8N7PaE-r-17">
          <mxGeometry width="50" height="50" relative="1" as="geometry">
            <mxPoint x="1180" y="570" as="sourcePoint" />
            <mxPoint x="1230" y="520" as="targetPoint" />
            <Array as="points">
              <mxPoint x="1150" y="570" />
            </Array>
          </mxGeometry>
        </mxCell>
        <mxCell id="Zg-CFBz7XTrR8N7PaE-r-29" value="" style="endArrow=classic;html=1;entryX=1;entryY=0.5;entryDx=0;entryDy=0;exitX=0;exitY=0.5;exitDx=0;exitDy=0;dashed=1;" edge="1" parent="1" source="Zg-CFBz7XTrR8N7PaE-r-19" target="Zg-CFBz7XTrR8N7PaE-r-15">
          <mxGeometry width="50" height="50" relative="1" as="geometry">
            <mxPoint x="395" y="320" as="sourcePoint" />
            <mxPoint x="445" y="270" as="targetPoint" />
          </mxGeometry>
        </mxCell>
        <mxCell id="Zg-CFBz7XTrR8N7PaE-r-30" value="" style="endArrow=classic;html=1;entryX=1;entryY=0.5;entryDx=0;entryDy=0;exitX=0;exitY=0.5;exitDx=0;exitDy=0;dashed=1;" edge="1" parent="1">
          <mxGeometry width="50" height="50" relative="1" as="geometry">
            <mxPoint x="640" y="474.5" as="sourcePoint" />
            <mxPoint x="480" y="474.5" as="targetPoint" />
          </mxGeometry>
        </mxCell>
        <mxCell id="Zg-CFBz7XTrR8N7PaE-r-31" value="" style="endArrow=classic;html=1;entryX=1;entryY=0.5;entryDx=0;entryDy=0;exitX=0;exitY=0.5;exitDx=0;exitDy=0;dashed=1;curved=1;" edge="1" parent="1" target="Zg-CFBz7XTrR8N7PaE-r-16">
          <mxGeometry width="50" height="50" relative="1" as="geometry">
            <mxPoint x="910" y="389.5" as="sourcePoint" />
            <mxPoint x="750" y="389.5" as="targetPoint" />
            <Array as="points">
              <mxPoint x="670" y="440" />
            </Array>
          </mxGeometry>
        </mxCell>
        <mxCell id="Zg-CFBz7XTrR8N7PaE-r-32" value="" style="endArrow=classic;html=1;entryX=0.5;entryY=1;entryDx=0;entryDy=0;exitX=0;exitY=0.5;exitDx=0;exitDy=0;dashed=1;curved=1;" edge="1" parent="1" source="Zg-CFBz7XTrR8N7PaE-r-20" target="Zg-CFBz7XTrR8N7PaE-r-15">
          <mxGeometry width="50" height="50" relative="1" as="geometry">
            <mxPoint x="640" y="389.5" as="sourcePoint" />
            <mxPoint x="480" y="389.5" as="targetPoint" />
            <Array as="points">
              <mxPoint x="390" y="460" />
            </Array>
          </mxGeometry>
        </mxCell>
        <mxCell id="Zg-CFBz7XTrR8N7PaE-r-33" value="" style="endArrow=classic;html=1;dashed=1;exitX=1;exitY=0.5;exitDx=0;exitDy=0;entryX=0;entryY=0.5;entryDx=0;entryDy=0;" edge="1" parent="1" source="Zg-CFBz7XTrR8N7PaE-r-23" target="Zg-CFBz7XTrR8N7PaE-r-17">
          <mxGeometry width="50" height="50" relative="1" as="geometry">
            <mxPoint x="580" y="560" as="sourcePoint" />
            <mxPoint x="630" y="510" as="targetPoint" />
          </mxGeometry>
        </mxCell>
        <mxCell id="Zg-CFBz7XTrR8N7PaE-r-34" value="" style="endArrow=classic;html=1;dashed=1;exitX=1;exitY=0.5;exitDx=0;exitDy=0;curved=1;" edge="1" parent="1" source="Zg-CFBz7XTrR8N7PaE-r-18">
          <mxGeometry width="50" height="50" relative="1" as="geometry">
            <mxPoint x="200" y="560" as="sourcePoint" />
            <mxPoint x="900" y="480" as="targetPoint" />
            <Array as="points">
              <mxPoint x="540" y="560" />
            </Array>
          </mxGeometry>
        </mxCell>
      </root>
    </mxGraphModel>
  </diagram>
</mxfile>
